<?xml version="1.0" encoding="utf-8" ?>
<svg xmlns="http://www.w3.org/2000/svg" xmlns:xlink="http://www.w3.org/1999/xlink" width="1024" height="1024">
	<path fill="#E8D0C4" transform="scale(1.6 1.6)" d="M163.897 428.557C168.715 432.238 174.124 435.143 179.415 438.089C219.99 460.681 269.698 467.655 314.882 456.425C335.088 451.403 353.287 442.889 371.32 432.664C372.152 436.514 371.925 440.641 371.936 444.526L372.021 483.255C372.153 501.218 370.479 500.376 354.87 500.334L166.719 500.306C164.969 500.223 163.775 499.72 162.445 498.605L162.065 498.281C160.517 496.983 159.293 495.788 158.515 493.884L158.35 493.464C156.764 489.585 157.575 484.892 157.566 480.801L157.516 445.272C157.507 440.376 156.877 435.137 160.745 431.334L163.897 428.557Z"/>
	<path fill="#E8D0C4" transform="scale(1.6 1.6)" d="M436.422 176.325L436.234 176.059C436.546 173.235 436.156 170.185 436.051 167.344L435.95 155.222C436.04 148.331 435.882 143.571 443.125 141.26L443.682 141.079C444.966 140.701 446.363 140.44 447.702 140.385L486.875 140.399C493.596 140.363 501.54 139.53 505.746 146.131L506.093 146.747C507.202 148.788 507.459 149.912 507.49 152.344L507.557 397.338C507.646 401.932 507.858 406.221 506.972 410.781L503.165 426.664L482.457 405.997C470.727 395.206 460.315 398.16 448.368 407.601L424.615 384.357C425.251 381.82 428.05 378.512 429.531 376.266L437.058 364.228C464.365 315.791 468.964 254.661 449.042 202.735C445.508 193.524 440.963 185.038 436.422 176.325Z"/>
	<path fill="#4A251E" transform="scale(1.6 1.6)" d="M157.545 125.958C157.225 124.439 157.297 123.068 157.389 121.537C187.726 92.963 252.318 76.125 294.485 83.9708L304.853 85.4688C354.141 93.4741 399.86 123.448 428.28 164.242L436.422 176.325C440.963 185.038 445.508 193.524 449.042 202.735C468.964 254.661 464.365 315.791 437.058 364.228L429.531 376.266C428.05 378.512 425.251 381.82 424.615 384.357L448.368 407.601C460.315 398.16 470.727 395.206 482.457 405.997L503.165 426.664C506.951 429.979 510.425 433.701 513.974 437.267L546.027 469.147C552.855 475.65 560.444 482.36 565.587 490.312C597.881 540.246 531.894 598.002 487.421 561.957C481.538 557.189 476.333 551.523 471.136 546.031L427.522 501.764C413.446 487.628 389.164 468.737 408.474 447.422L385.328 423.018C380.647 426.031 375.444 428.943 371.32 432.664C353.287 442.889 335.088 451.403 314.882 456.425C269.698 467.655 219.99 460.681 179.415 438.089C174.124 435.143 168.715 432.238 163.897 428.557L163.65 428.378C109.809 387.355 77.8898 328.898 82.0097 260.7C84.3894 221.308 97.6823 186.469 121.813 155.644C125.71 150.666 135.537 134.66 143.14 141.419L145.773 145.536C142.802 149.588 139.176 153.24 135.891 157.044L126.216 169.375C105.886 197.095 93.676 231.861 93.127 266.33C92.817 269.352 92.6818 272.628 93.0003 275.654C90.7324 313.046 113.245 361.453 137.023 388.612L142.462 394.213C156.474 408.048 171.048 419.755 188.065 429.641C189.802 430.945 192.131 431.972 194.083 432.952C280.05 476.123 388.667 435.65 431.11 351.341C435.219 343.178 438.013 334.795 441.226 326.289L441.896 324.031C446.716 307.769 449.591 291.589 449.704 274.612L449.753 266.287C449.884 251.957 445.659 219.681 438.262 206.592C428.22 183.607 417.13 167.241 400.417 148.412L399.643 147.53C395.071 142.332 389.481 137.919 384.035 133.675C345.445 103.604 300.628 89.4379 251.25 95.1994C224.19 98.3568 197.315 107.329 174.48 122.211C170.466 124.827 166.717 127.947 162.55 130.302C160.881 129.203 158.473 127.757 157.545 125.958Z"/>
	<path fill="#BF7E69" transform="scale(1.6 1.6)" d="M417.823 394.152C424.504 402.411 432.185 410.87 440.62 417.34L417.011 440.358L406.313 428.345C402.64 424.371 398.914 420.245 394.746 416.78L394.267 416.385C403.048 408.303 409.32 404.521 417.823 394.152Z"/>
	<path fill="#BF7E69" transform="scale(1.6 1.6)" d="M468.094 411.625L468.832 411.843C477.39 414.51 483.96 424.355 489.907 430.556L537.731 479.621C552.873 494.559 565.387 506.175 557.814 530.195C551.213 551.131 527.133 562.959 506.363 556.41L502.941 555.032C491.473 549.77 482.786 538.212 474.048 529.497L417.295 471.961C409.906 463.755 411.601 463.116 418.911 455.607L445.785 429.591C452.421 423.259 458.964 414.251 468.094 411.625Z"/>
	<path fill="#BF7E69" transform="scale(1.6 1.6)" d="M157.545 125.958C158.473 127.757 160.881 129.203 162.55 130.302C166.717 127.947 170.466 124.827 174.48 122.211C197.315 107.329 224.19 98.3568 251.25 95.1994C300.628 89.4379 345.445 103.604 384.035 133.675C389.481 137.919 395.071 142.332 399.643 147.53L400.417 148.412C417.13 167.241 428.22 183.607 438.262 206.592C445.659 219.681 449.884 251.957 449.669 266.287L449.8 274.612C449.591 291.589 446.716 307.769 441.896 324.031L441.226 326.289C438.013 334.795 435.219 343.178 431.11 351.341C388.667 435.65 280.05 476.123 194.083 432.952C192.131 431.972 189.802 430.945 188.065 429.641C171.048 419.755 156.474 408.048 142.462 394.213L137.023 388.612C113.245 361.453 90.7324 313.046 93.2262 275.654C92.6818 272.628 92.817 269.352 93.0821 266.33C93.676 231.861 105.886 197.095 126.216 169.375L135.891 157.044C139.176 153.24 142.802 149.588 145.773 145.536L143.14 141.419C143.856 140.893 144.303 139.549 144.772 138.788C147.153 134.926 157.376 128.178 157.545 125.958Z"/>
	<path fill="#E8D0C4" transform="scale(1.6 1.6)" d="M142.462 394.213C144.029 392.537 145.989 391.393 147.812 390.035L166.167 373.898C170.991 369.569 172.585 365.813 176.961 369.74C185.182 377.337 200.439 390.783 211.355 394.242L188.065 429.641C171.048 419.755 156.474 408.048 142.462 394.213Z"/>
	<path fill="#E8D0C4" transform="scale(1.6 1.6)" d="M438.262 206.592C426.751 211.728 413.966 213.613 401.901 216.951L401.634 217.027C395.479 198.164 382.595 188.889 372.799 174.072L372.863 173.83C374.537 168.961 395.492 150.964 400.417 148.412C417.13 167.241 428.22 183.607 438.262 206.592Z"/>
	<path fill="#A9B959" transform="scale(1.6 1.6)" d="M271 135.796C273.171 134.472 287.568 136.311 290.714 136.708C331.403 141.841 360.265 163.468 384.684 195.025C392.161 204.688 394.339 206.652 398.964 217.843C403.068 227.776 406.763 237.515 408.771 248.125L410.029 256.562C410.276 258.973 410.23 262.47 411.307 264.661L411.248 264.928C410.287 268.866 405.699 271.814 411.922 272.63C410.993 276.264 410.756 280.163 410.231 283.881C400.968 349.424 359.753 391.087 297.221 405.416C284.211 408.397 272.714 409.764 259.368 407.626L238.255 403.255L215.328 395.632C214.194 395.149 212.576 394.288 211.355 394.242C200.439 390.783 185.182 377.337 176.961 369.74C176.586 368.894 175.836 368.157 175.54 367.344C173.458 361.619 173.431 362.776 169.208 357.958L159.844 346.306C157.651 343.325 155.506 340.577 154.015 337.168L153.408 336.222C143.636 319.895 138.843 299.856 136.18 281.193C135.367 275.49 135.214 270.613 135.517 264.908C138.933 200.531 194.107 140.881 259.062 136.578C262.865 136.326 266.679 136.439 270.459 135.879L271 135.796Z"/>
	<path fill="#E8D0C4" transform="scale(1.6 1.6)" d="M154.015 337.159L153.408 336.222C143.636 319.895 138.843 299.856 136.18 281.193C135.367 275.49 135.214 270.613 135.517 264.908C138.933 200.531 194.107 140.881 259.062 136.578C262.865 136.326 266.679 136.439 270.459 135.879L271 135.796L270.715 283.913L338.377 216.366C341.555 213.339 346.32 207.253 351.115 207.155C353.445 207.107 357.53 211.094 357.62 213.448C357.812 218.448 331.34 241.948 326.951 246.262L276.473 296.838C275.266 298.057 273.165 299.763 272.355 301.214L272.475 336.928L154.015 337.159Z"/>
	<path fill="#4A251E" transform="scale(1.6 1.6)" d="M270.607 283.913L338.377 216.366C341.555 213.339 346.32 207.253 351.115 207.155C353.445 207.107 357.53 211.094 357.62 213.448C357.812 218.448 331.34 241.948 326.951 246.262L276.473 296.838C275.266 298.057 273.165 299.763 272.355 301.214L258.924 314.326C243.438 329.89 248.002 329.747 231.633 313.453L194.356 276.482C190.288 272.431 185.793 268.983 183.816 263.448C189.177 247.015 202.793 267.149 208.814 272.936L232.728 296.301C237.136 300.719 241.682 305.089 245.744 309.83L270.607 283.913Z"/>
</svg>
